# xmcd
#
# Track frame offsets:
#	150
#	13842
#	26135
#	39077
#	53180
#	63615
#	78600
#	91265
#	102250
#	116145
#	125867
#	135902
#	150195
#	167790
#	179150
#	190575
#	202085
#	216947
#	228727
#	244527
#
# Disc length: 3460 seconds
#
# Revision: 0
# Processed by: cddbd v1.5.2PL0 Copyright (c) Steve Scherf et al.
# Submitted via: audiograbber 1.83.01
#
DISCID=1b0d8214
DTITLE=Glen Campbell - Love Songs
DYEAR=1900
DGENRE=
TTITLE0=Honey Come Back
TTITLE1=By The Time I Get To Pheonix
TTITLE2=Country Girl
TTITLE3=Gentle On My Mind
TTITLE4=Reason To Believe
TTITLE5=One Last Time
TTITLE6=(I'm getting Used) To Crying
TTITLE7=It's Only Make Believe
TTITLE8=How High Did We Go
TTITLE9=If This Is Love
TTITLE10=Love Is Not A Game
TTITLE11=For My Womans Love
TTITLE12=The Last Thing On My Mind
TTITLE13=Everything A Man Could Ever Need
TTITLE14=Dream Baby (How Long Must I Dream)
TTITLE15=Hey Little One
TTITLE16=Your Cheatin' Heart
TTITLE17=This Is Sarah's Song
TTITLE18=Let Go
TTITLE19=God Only Knows
EXTD=
EXTT0=
EXTT1=
EXTT2=
EXTT3=
EXTT4=
EXTT5=
EXTT6=
EXTT7=
EXTT8=
EXTT9=
EXTT10=
EXTT11=
EXTT12=
EXTT13=
EXTT14=
EXTT15=
EXTT16=
EXTT17=
EXTT18=
EXTT19=
PLAYORDER=
